<svg width="70" height="34" viewBox="0 0 70 34" fill="none" xmlns="http://www.w3.org/2000/svg">
<path d="M39.75 3.56V2C39.75 1.59 39.41 1.25 39 1.25C38.59 1.25 38.25 1.59 38.25 2V3.5H31.75V2C31.75 1.59 31.41 1.25 31 1.25C30.59 1.25 30.25 1.59 30.25 2V3.56C27.55 3.81 26.24 5.42 26.04 7.81C26.02 8.1 26.26 8.34 26.54 8.34H43.46C43.75 8.34 43.99 8.09 43.96 7.81C43.76 5.42 42.45 3.81 39.75 3.56Z" fill="white"/>
<path d="M43 9.84003H27C26.45 9.84003 26 10.29 26 10.84V17C26 20 27.5 22 31 22H39C42.5 22 44 20 44 17V10.84C44 10.29 43.55 9.84003 43 9.84003ZM32.21 18.21C32.11 18.3 32 18.37 31.88 18.42C31.76 18.47 31.63 18.5 31.5 18.5C31.37 18.5 31.24 18.47 31.12 18.42C31 18.37 30.89 18.3 30.79 18.21C30.61 18.02 30.5 17.76 30.5 17.5C30.5 17.24 30.61 16.98 30.79 16.79C30.89 16.7 31 16.63 31.12 16.58C31.36 16.48 31.64 16.48 31.88 16.58C32 16.63 32.11 16.7 32.21 16.79C32.39 16.98 32.5 17.24 32.5 17.5C32.5 17.76 32.39 18.02 32.21 18.21ZM32.42 14.38C32.37 14.5 32.3 14.61 32.21 14.71C32.11 14.8 32 14.87 31.88 14.92C31.76 14.97 31.63 15 31.5 15C31.37 15 31.24 14.97 31.12 14.92C31 14.87 30.89 14.8 30.79 14.71C30.7 14.61 30.63 14.5 30.58 14.38C30.53 14.26 30.5 14.13 30.5 14C30.5 13.87 30.53 13.74 30.58 13.62C30.63 13.5 30.7 13.39 30.79 13.29C30.89 13.2 31 13.13 31.12 13.08C31.36 12.98 31.64 12.98 31.88 13.08C32 13.13 32.11 13.2 32.21 13.29C32.3 13.39 32.37 13.5 32.42 13.62C32.47 13.74 32.5 13.87 32.5 14C32.5 14.13 32.47 14.26 32.42 14.38ZM35.71 14.71C35.61 14.8 35.5 14.87 35.38 14.92C35.26 14.97 35.13 15 35 15C34.87 15 34.74 14.97 34.62 14.92C34.5 14.87 34.39 14.8 34.29 14.71C34.11 14.52 34 14.26 34 14C34 13.74 34.11 13.48 34.29 13.29C34.39 13.2 34.5 13.13 34.62 13.08C34.86 12.97 35.14 12.97 35.38 13.08C35.5 13.13 35.61 13.2 35.71 13.29C35.89 13.48 36 13.74 36 14C36 14.26 35.89 14.52 35.71 14.71Z" fill="white"/>
<rect x="29" y="32" width="12" height="2" rx="1" fill="white"/>
</svg>
