<svg width="70" height="34" viewBox="0 0 70 34" fill="none" xmlns="http://www.w3.org/2000/svg">
<path d="M31 5.75C30.59 5.75 30.25 5.41 30.25 5V2C30.25 1.59 30.59 1.25 31 1.25C31.41 1.25 31.75 1.59 31.75 2V5C31.75 5.41 31.41 5.75 31 5.75Z" fill="white"/>
<path d="M39 5.75C38.59 5.75 38.25 5.41 38.25 5V2C38.25 1.59 38.59 1.25 39 1.25C39.41 1.25 39.75 1.59 39.75 2V5C39.75 5.41 39.41 5.75 39 5.75Z" fill="white"/>
<path d="M43.5 9.83997H26.5C26.09 9.83997 25.75 9.49997 25.75 9.08997C25.75 8.67997 26.09 8.33997 26.5 8.33997H43.5C43.91 8.33997 44.25 8.67997 44.25 9.08997C44.25 9.49997 43.91 9.83997 43.5 9.83997Z" fill="white"/>
<path d="M39 22.75H31C27.35 22.75 25.25 20.65 25.25 17V8.5C25.25 4.85 27.35 2.75 31 2.75H39C42.65 2.75 44.75 4.85 44.75 8.5V17C44.75 20.65 42.65 22.75 39 22.75ZM31 4.25C28.14 4.25 26.75 5.64 26.75 8.5V17C26.75 19.86 28.14 21.25 31 21.25H39C41.86 21.25 43.25 19.86 43.25 17V8.5C43.25 5.64 41.86 4.25 39 4.25H31Z" fill="white"/>
<path d="M31.5 14.5C31.37 14.5 31.24 14.47 31.12 14.42C31 14.37 30.89 14.3 30.79 14.21C30.7 14.11 30.63 14 30.58 13.88C30.53 13.76 30.5 13.63 30.5 13.5C30.5 13.24 30.61 12.98 30.79 12.79C30.89 12.7 31 12.63 31.12 12.58C31.3 12.5 31.5 12.48 31.7 12.52C31.76 12.53 31.82 12.55 31.88 12.58C31.94 12.6 32 12.63 32.06 12.67C32.11 12.71 32.16 12.75 32.21 12.79C32.25 12.84 32.3 12.89 32.33 12.94C32.37 13 32.4 13.06 32.42 13.12C32.45 13.18 32.47 13.24 32.48 13.3C32.49 13.37 32.5 13.43 32.5 13.5C32.5 13.76 32.39 14.02 32.21 14.21C32.02 14.39 31.76 14.5 31.5 14.5Z" fill="white"/>
<path d="M35 14.5C34.74 14.5 34.48 14.39 34.29 14.21C34.25 14.16 34.21 14.11 34.17 14.06C34.13 14 34.1 13.94 34.08 13.88C34.05 13.82 34.03 13.76 34.02 13.7C34.01 13.63 34 13.57 34 13.5C34 13.37 34.03 13.24 34.08 13.12C34.13 13 34.2 12.89 34.29 12.79C34.57 12.51 35.02 12.42 35.38 12.58C35.51 12.63 35.61 12.7 35.71 12.79C35.89 12.98 36 13.24 36 13.5C36 13.57 35.99 13.63 35.98 13.7C35.97 13.76 35.95 13.82 35.92 13.88C35.9 13.94 35.87 14 35.83 14.06C35.79 14.11 35.75 14.16 35.71 14.21C35.61 14.3 35.51 14.37 35.38 14.42C35.26 14.47 35.13 14.5 35 14.5Z" fill="white"/>
<path d="M31.5 18C31.37 18 31.24 17.97 31.12 17.92C31 17.87 30.89 17.8 30.79 17.71C30.7 17.61 30.63 17.51 30.58 17.38C30.53 17.26 30.5 17.13 30.5 17C30.5 16.74 30.61 16.48 30.79 16.29C30.89 16.2 31 16.13 31.12 16.08C31.49 15.92 31.93 16.01 32.21 16.29C32.25 16.34 32.3 16.39 32.33 16.44C32.37 16.5 32.4 16.56 32.42 16.62C32.45 16.68 32.47 16.74 32.48 16.81C32.49 16.87 32.5 16.94 32.5 17C32.5 17.26 32.39 17.52 32.21 17.71C32.02 17.89 31.76 18 31.5 18Z" fill="white"/>
</svg>
