<svg width="16" height="16" viewBox="0 0 16 16" fill="none" xmlns="http://www.w3.org/2000/svg">
<path d="M11.3333 1.33331H4.66668C2.82668 1.33331 1.33334 2.81998 1.33334 4.65331V8.63998V9.30665C1.33334 11.14 2.82668 12.6266 4.66668 12.6266H5.66668C5.84668 12.6266 6.08668 12.7466 6.20001 12.8933L7.20001 14.22C7.64001 14.8066 8.36001 14.8066 8.80001 14.22L9.80001 12.8933C9.92668 12.7266 10.1267 12.6266 10.3333 12.6266H11.3333C13.1733 12.6266 14.6667 11.14 14.6667 9.30665V4.65331C14.6667 2.81998 13.1733 1.33331 11.3333 1.33331ZM5.33334 7.99998C4.96001 7.99998 4.66668 7.69998 4.66668 7.33331C4.66668 6.96665 4.96668 6.66665 5.33334 6.66665C5.70001 6.66665 6.00001 6.96665 6.00001 7.33331C6.00001 7.69998 5.70668 7.99998 5.33334 7.99998ZM8.00001 7.99998C7.62668 7.99998 7.33334 7.69998 7.33334 7.33331C7.33334 6.96665 7.63334 6.66665 8.00001 6.66665C8.36668 6.66665 8.66668 6.96665 8.66668 7.33331C8.66668 7.69998 8.37334 7.99998 8.00001 7.99998ZM10.6667 7.99998C10.2933 7.99998 10 7.69998 10 7.33331C10 6.96665 10.3 6.66665 10.6667 6.66665C11.0333 6.66665 11.3333 6.96665 11.3333 7.33331C11.3333 7.69998 11.04 7.99998 10.6667 7.99998Z" fill="#D0D5DD"/>
</svg>
