<svg width="70" height="34" viewBox="0 0 70 34" fill="none" xmlns="http://www.w3.org/2000/svg">
<path d="M34.79 11.88C34.25 11.88 33.7 11.78 33.27 11.59L27.37 8.97C25.87 8.3 25.65 7.4 25.65 6.91C25.65 6.42 25.87 5.52 27.37 4.85L33.27 2.23C34.14 1.84 35.45 1.84 36.32 2.23L42.23 4.85C43.72 5.51 43.95 6.42 43.95 6.91C43.95 7.4 43.73 8.3 42.23 8.97L36.32 11.59C35.88 11.79 35.34 11.88 34.79 11.88ZM34.79 3.44C34.45 3.44 34.12 3.49 33.88 3.6L27.98 6.22C27.37 6.5 27.15 6.78 27.15 6.91C27.15 7.04 27.37 7.33 27.97 7.6L33.87 10.22C34.35 10.43 35.22 10.43 35.7 10.22L41.61 7.6C42.22 7.33 42.44 7.04 42.44 6.91C42.44 6.78 42.22 6.49 41.61 6.22L35.71 3.6C35.47 3.5 35.13 3.44 34.79 3.44Z" fill="white"/>
<path d="M35 17.09C34.62 17.09 34.24 17.01 33.88 16.85L27.09 13.83C26.06 13.38 25.25 12.13 25.25 11C25.25 10.59 25.59 10.25 26 10.25C26.41 10.25 26.75 10.59 26.75 11C26.75 11.55 27.2 12.24 27.7 12.47L34.49 15.49C34.81 15.63 35.18 15.63 35.51 15.49L42.3 12.47C42.8 12.25 43.25 11.55 43.25 11C43.25 10.59 43.59 10.25 44 10.25C44.41 10.25 44.75 10.59 44.75 11C44.75 12.13 43.94 13.38 42.91 13.84L36.12 16.86C35.76 17.01 35.38 17.09 35 17.09Z" fill="white"/>
<path d="M35 22.09C34.62 22.09 34.24 22.01 33.88 21.85L27.09 18.83C25.97 18.33 25.25 17.22 25.25 15.99C25.25 15.58 25.59 15.24 26 15.24C26.41 15.24 26.75 15.59 26.75 16C26.75 16.63 27.12 17.21 27.7 17.47L34.49 20.49C34.81 20.63 35.18 20.63 35.51 20.49L42.3 17.47C42.88 17.21 43.25 16.64 43.25 16C43.25 15.59 43.59 15.25 44 15.25C44.41 15.25 44.75 15.59 44.75 16C44.75 17.23 44.03 18.34 42.91 18.84L36.12 21.86C35.76 22.01 35.38 22.09 35 22.09Z" fill="white"/>
</svg>
