<svg width="70" height="34" viewBox="0 0 70 34" fill="none" xmlns="http://www.w3.org/2000/svg">
<path d="M31 5.75C30.59 5.75 30.25 5.41 30.25 5V2C30.25 1.59 30.59 1.25 31 1.25C31.41 1.25 31.75 1.59 31.75 2V5C31.75 5.41 31.41 5.75 31 5.75Z" fill="white"/>
<path d="M39 5.75C38.59 5.75 38.25 5.41 38.25 5V2C38.25 1.59 38.59 1.25 39 1.25C39.41 1.25 39.75 1.59 39.75 2V5C39.75 5.41 39.41 5.75 39 5.75Z" fill="white"/>
<path d="M39 22.75H31C27.35 22.75 25.25 20.65 25.25 17V8.5C25.25 4.85 27.35 2.75 31 2.75H39C42.65 2.75 44.75 4.85 44.75 8.5V17C44.75 20.65 42.65 22.75 39 22.75ZM31 4.25C28.14 4.25 26.75 5.64 26.75 8.5V17C26.75 19.86 28.14 21.25 31 21.25H39C41.86 21.25 43.25 19.86 43.25 17V8.5C43.25 5.64 41.86 4.25 39 4.25H31Z" fill="white"/>
<path d="M39 11.75H31C30.59 11.75 30.25 11.41 30.25 11C30.25 10.59 30.59 10.25 31 10.25H39C39.41 10.25 39.75 10.59 39.75 11C39.75 11.41 39.41 11.75 39 11.75Z" fill="white"/>
<path d="M35 16.75H31C30.59 16.75 30.25 16.41 30.25 16C30.25 15.59 30.59 15.25 31 15.25H35C35.41 15.25 35.75 15.59 35.75 16C35.75 16.41 35.41 16.75 35 16.75Z" fill="white"/>
</svg>
