<svg width="70" height="34" viewBox="0 0 70 34" fill="none" xmlns="http://www.w3.org/2000/svg">
<path d="M34.5002 22.75C33.7102 22.75 32.9602 22.34 32.4402 21.64L31.4202 20.3C31.2102 20.02 30.9302 19.86 30.6302 19.84C30.3402 19.82 30.0303 19.96 29.7803 20.21C28.9203 21.13 28.0802 21.57 27.2902 21.55C26.7502 21.53 26.2802 21.29 25.9202 20.85C25.8802 20.8 25.8402 20.73 25.8102 20.66C25.4202 19.82 25.2402 18.68 25.2402 16.97V7.05001C25.2402 5.34001 25.4202 4.21001 25.8102 3.36001C25.8402 3.30001 25.8702 3.24001 25.9202 3.19001C26.2702 2.74001 26.7403 2.50001 27.2803 2.47001C28.0803 2.44001 28.9303 2.90001 29.7703 3.80001C30.0203 4.07001 30.3202 4.20001 30.6202 4.18001C30.9202 4.16001 31.2002 4.00001 31.4102 3.72001L32.4302 2.37001C32.9502 1.67001 33.7002 1.26001 34.4902 1.26001C35.2802 1.26001 36.0302 1.67001 36.5502 2.37001L37.5602 3.71001C37.7702 4.00001 38.0602 4.16001 38.3702 4.18001C38.6602 4.20001 38.9702 4.06001 39.2202 3.80001C40.0402 2.92001 40.8502 2.47001 41.6302 2.47001C42.1902 2.47001 42.7103 2.72001 43.0703 3.19001C43.1103 3.24001 43.1502 3.30001 43.1802 3.37001C43.5702 4.21001 43.7502 5.35001 43.7502 7.06001V16.98C43.7502 18.69 43.5702 19.82 43.1802 20.67C43.1402 20.76 43.0903 20.84 43.0203 20.91C42.7103 21.31 42.2002 21.56 41.6302 21.56C40.8502 21.56 40.0402 21.11 39.2202 20.23C38.9802 19.97 38.6502 19.83 38.3702 19.85C38.0602 19.87 37.7802 20.03 37.5602 20.32L36.5502 21.66C36.0402 22.34 35.2902 22.75 34.5002 22.75ZM30.5803 18.33C30.6203 18.33 30.6703 18.33 30.7103 18.33C31.4503 18.37 32.1402 18.76 32.6102 19.39L33.6302 20.74C34.1202 21.4 34.8602 21.4 35.3502 20.75L36.3602 19.41C36.8402 18.77 37.5403 18.39 38.2803 18.35C39.0203 18.31 39.7602 18.62 40.3002 19.2C41.0402 19.99 41.4902 20.05 41.6102 20.05C41.6902 20.05 41.7603 20.03 41.8303 19.97C42.1103 19.34 42.2302 18.39 42.2302 16.97V7.05001C42.2302 5.65001 42.1003 4.70001 41.8303 4.07001C41.7503 3.98001 41.6702 3.97001 41.6102 3.97001C41.4902 3.97001 41.0402 4.03001 40.3002 4.82001C39.7602 5.40001 39.0203 5.71001 38.2803 5.67001C37.5303 5.63001 36.8302 5.24001 36.3502 4.61001L35.3403 3.27001C34.8503 2.61001 34.1102 2.61001 33.6202 3.27001L32.6002 4.63001C32.1302 5.26001 31.4403 5.64001 30.7003 5.68001C29.9603 5.72001 29.2202 5.41001 28.6802 4.84001C28.0702 4.18001 27.6003 3.96001 27.3403 3.97001C27.2803 3.97001 27.2102 3.99001 27.1302 4.07001C26.8602 4.70001 26.7302 5.65001 26.7302 7.05001V16.97C26.7302 18.38 26.8602 19.33 27.1302 19.96C27.2202 20.04 27.2803 20.05 27.3403 20.06C27.5903 20.07 28.0602 19.85 28.6702 19.2C29.2002 18.63 29.8903 18.33 30.5803 18.33Z" fill="white"/>
<path d="M39 11H31C30.59 11 30.25 10.66 30.25 10.25C30.25 9.84 30.59 9.5 31 9.5H39C39.41 9.5 39.75 9.84 39.75 10.25C39.75 10.66 39.41 11 39 11Z" fill="white"/>
<path d="M37 14.5H31C30.59 14.5 30.25 14.16 30.25 13.75C30.25 13.34 30.59 13 31 13H37C37.41 13 37.75 13.34 37.75 13.75C37.75 14.16 37.41 14.5 37 14.5Z" fill="white"/>
</svg>
