<svg width="70" height="34" viewBox="0 0 70 34" fill="none" xmlns="http://www.w3.org/2000/svg">
<path d="M43.0399 6.82006L37.2799 2.79006C35.7099 1.69006 33.2999 1.75006 31.7899 2.92006L26.7799 6.83006C25.7799 7.61006 24.9899 9.21006 24.9899 10.4701V17.3701C24.9899 19.9201 27.0599 22.0001 29.6099 22.0001H40.3899C42.9399 22.0001 45.0099 19.9301 45.0099 17.3801V10.6001C45.0099 9.25006 44.1399 7.59006 43.0399 6.82006ZM35.7499 18.0001C35.7499 18.4101 35.4099 18.7501 34.9999 18.7501C34.5899 18.7501 34.2499 18.4101 34.2499 18.0001V15.0001C34.2499 14.5901 34.5899 14.2501 34.9999 14.2501C35.4099 14.2501 35.7499 14.5901 35.7499 15.0001V18.0001Z" fill="#FEFEFE"/>
<rect x="29" y="32" width="12" height="2" rx="1" fill="#FEFEFE"/>
</svg>
