<svg width="24" height="24" viewBox="0 0 24 24" fill="none" xmlns="http://www.w3.org/2000/svg">
<circle cx="12" cy="12" r="12" fill="#7A5AF8"/>
<path d="M16.575 9.085C16.37 8.975 15.94 8.86 15.355 9.27L14.62 9.79C14.565 8.235 13.89 7.625 12.25 7.625H9.25C7.54 7.625 6.875 8.29 6.875 10V14C6.875 15.15 7.5 16.375 9.25 16.375H12.25C13.89 16.375 14.565 15.765 14.62 14.21L15.355 14.73C15.665 14.95 15.935 15.02 16.15 15.02C16.335 15.02 16.48 14.965 16.575 14.915C16.78 14.81 17.125 14.525 17.125 13.81V10.19C17.125 9.475 16.78 9.19 16.575 9.085ZM11.5 11.69C10.985 11.69 10.56 11.27 10.56 10.75C10.56 10.23 10.985 9.81 11.5 9.81C12.015 9.81 12.44 10.23 12.44 10.75C12.44 11.27 12.015 11.69 11.5 11.69Z" fill="#FAFAFF"/>
</svg>
