<svg width="40" height="40" viewBox="0 0 40 40" fill="none" xmlns="http://www.w3.org/2000/svg">
<circle cx="20" cy="20" r="20" fill="#F4F5FF"/>
<path d="M24.1667 12.025H15.8333C13.3333 12.025 11.6667 13.6917 11.6667 16.1917V21.1917C11.6667 23.6917 13.3333 25.3583 15.8333 25.3583H19.1667L22.875 27.825C23.425 28.1917 24.1667 27.8 24.1667 27.1333V25.3583C26.6667 25.3583 28.3333 23.6917 28.3333 21.1917V16.1917C28.3333 13.6917 26.6667 12.025 24.1667 12.025ZM22.9167 19.375H17.0833C16.7417 19.375 16.4583 19.0917 16.4583 18.75C16.4583 18.4083 16.7417 18.125 17.0833 18.125H22.9167C23.2583 18.125 23.5417 18.4083 23.5417 18.75C23.5417 19.0917 23.2583 19.375 22.9167 19.375Z" fill="#6E62FF"/>
</svg>
