<svg width="10" height="11" viewBox="0 0 10 11" fill="none" xmlns="http://www.w3.org/2000/svg">
<path d="M7.50833 5.63748L6.99999 5.12915C6.87916 5.02498 6.80833 4.87081 6.80416 4.69998C6.79583 4.51248 6.87083 4.32498 7.00833 4.18748L7.50833 3.68748C7.94166 3.25415 8.10416 2.83748 7.96666 2.50831C7.83333 2.18331 7.42083 2.00415 6.8125 2.00415H2.45833V1.64581C2.45833 1.47498 2.31666 1.33331 2.14583 1.33331C1.97499 1.33331 1.83333 1.47498 1.83333 1.64581V9.35415C1.83333 9.52498 1.97499 9.66665 2.14583 9.66665C2.31666 9.66665 2.45833 9.52498 2.45833 9.35415V7.32081H6.8125C7.4125 7.32081 7.81666 7.13748 7.95416 6.80831C8.09166 6.47915 7.93333 6.06665 7.50833 5.63748Z" fill="white"/>
</svg>
