<svg width="20" height="21" viewBox="0 0 20 21" fill="none" xmlns="http://www.w3.org/2000/svg">
<path d="M9.12501 11.0833L7.91667 9.89583C7.76389 9.74306 7.57306 9.66667 7.34417 9.66667C7.11528 9.66667 6.91723 9.75 6.75001 9.91667C6.59723 10.0694 6.52084 10.2639 6.52084 10.5C6.52084 10.7361 6.59723 10.9306 6.75001 11.0833L8.54167 12.875C8.70834 13.0417 8.90278 13.125 9.12501 13.125C9.34723 13.125 9.54167 13.0417 9.70834 12.875L13.25 9.33334C13.4167 9.16667 13.4964 8.97222 13.4892 8.75C13.482 8.52778 13.4022 8.33333 13.25 8.16667C13.0833 8 12.8856 7.91333 12.6567 7.90667C12.4278 7.9 12.2297 7.97972 12.0625 8.14584L9.12501 11.0833ZM6.79167 18.625L5.58334 16.5833L3.29167 16.0833C3.08334 16.0417 2.91667 15.9342 2.79167 15.7608C2.66667 15.5875 2.61806 15.3964 2.64584 15.1875L2.87501 12.8333L1.31251 11.0417C1.17362 10.8889 1.10417 10.7083 1.10417 10.5C1.10417 10.2917 1.17362 10.1111 1.31251 9.95834L2.87501 8.16667L2.64584 5.8125C2.61806 5.60417 2.66667 5.41306 2.79167 5.23917C2.91667 5.06528 3.08334 4.95778 3.29167 4.91667L5.58334 4.41667L6.79167 2.375C6.90278 2.19445 7.05556 2.07278 7.25001 2.01C7.44445 1.94722 7.63889 1.95778 7.83334 2.04167L10 2.95834L12.1667 2.04167C12.3611 1.95834 12.5556 1.94778 12.75 2.01C12.9445 2.07222 13.0972 2.19389 13.2083 2.375L14.4167 4.41667L16.7083 4.91667C16.9167 4.95834 17.0833 5.06611 17.2083 5.24C17.3333 5.41389 17.382 5.60472 17.3542 5.8125L17.125 8.16667L18.6875 9.95834C18.8264 10.1111 18.8958 10.2917 18.8958 10.5C18.8958 10.7083 18.8264 10.8889 18.6875 11.0417L17.125 12.8333L17.3542 15.1875C17.382 15.3958 17.3333 15.5869 17.2083 15.7608C17.0833 15.9347 16.9167 16.0422 16.7083 16.0833L14.4167 16.5833L13.2083 18.625C13.0972 18.8056 12.9445 18.9272 12.75 18.99C12.5556 19.0528 12.3611 19.0422 12.1667 18.9583L10 18.0417L7.83334 18.9583C7.63889 19.0417 7.44445 19.0522 7.25001 18.99C7.05556 18.9278 6.90278 18.8061 6.79167 18.625Z" fill="#675AFF"/>
</svg>
